{
    "accessors" : [
        {
            "bufferView" : 0,
            "componentType" : 5123,
            "count" : 44196,
            "max" : [
                7857
            ],
            "min" : [
                0
            ],
            "type" : "SCALAR"
        },
        {
            "bufferView" : 1,
            "componentType" : 5126,
            "count" : 7858,
            "max" : [
                3.427328109741211,
                2.996406316757202,
                2.7523186206817627
            ],
            "min" : [
                -4.510965347290039,
                -0.7578519582748413,
                -2.7523186206817627
            ],
            "type" : "VEC3"
        },
        {
            "bufferView" : 2,
            "componentType" : 5126,
            "count" : 7858,
            "max" : [
                0.999725341796875,
                0.999969482421875,
                0.999969482421875
            ],
            "min" : [
                -0.999786376953125,
                -0.99993896484375,
                -0.999969482421875
            ],
            "type" : "VEC3"
        },
        {
            "bufferView" : 3,
            "componentType" : 5126,
            "count" : 7858,
            "max" : [
                0.9999688267707825,
                0.9990354776382446,
                0.9996235370635986,
                1.0
            ],
            "min" : [
                -0.9984453916549683,
                -0.9982638955116272,
                -0.9996235370635986,
                -1.0
            ],
            "type" : "VEC4"
        },
        {
            "bufferView" : 4,
            "componentType" : 5126,
            "count" : 7858,
            "max" : [
                0.9988864064216614,
                0.9874051809310913
            ],
            "min" : [
                0.00020572543144226074,
                0.009556472301483154
            ],
            "type" : "VEC2"
        },
        {
            "bufferView" : 5,
            "componentType" : 5123,
            "count" : 7858,
            "max" : [
                0,
                0,
                0,
                0
            ],
            "min" : [
                0,
                0,
                0,
                0
            ],
            "type" : "VEC4"
        },
        {
            "bufferView" : 6,
            "componentType" : 5126,
            "count" : 7858,
            "max" : [
                0.0,
                0.0,
                0.0,
                0.0
            ],
            "min" : [
                0.0,
                0.0,
                0.0,
                0.0
            ],
            "type" : "VEC4"
        }
    ],
    "asset" : {
        "generator" : "Khronos Blender glTF 2.0 exporter",
        "version" : "2.0"
    },
    "bufferViews" : [
        {
            "buffer" : 0,
            "byteLength" : 88392,
            "byteOffset" : 0,
            "target" : 34963
        },
        {
            "buffer" : 0,
            "byteLength" : 94296,
            "byteOffset" : 88392,
            "target" : 34962
        },
        {
            "buffer" : 0,
            "byteLength" : 94296,
            "byteOffset" : 182688,
            "target" : 34962
        },
        {
            "buffer" : 0,
            "byteLength" : 125728,
            "byteOffset" : 276984,
            "target" : 34962
        },
        {
            "buffer" : 0,
            "byteLength" : 62864,
            "byteOffset" : 402712,
            "target" : 34962
        },
        {
            "buffer" : 0,
            "byteLength" : 62864,
            "byteOffset" : 465576,
            "target" : 34962
        },
        {
            "buffer" : 0,
            "byteLength" : 125728,
            "byteOffset" : 528440,
            "target" : 34962
        }
    ],
    "buffers" : [
        {
            "byteLength" : 654168,
            "uri" : "data:application/octet-stream;base64,"
        }
    ],
    "images" : [
        {
            "mimeType" : "image/png",
            "name" : "Albedo",
            "uri" : "data:image/png;base64,"
        },
        {
            "mimeType" : "image/png",
            "name" : "Roughness",
            "uri" : "data:image/png;base64,"
        }
    ],
    "materials" : [
        {
            "alphaMode" : "BLEND",
            "name" : "BaseMaterial",
            "pbrMetallicRoughness" : {
                "baseColorTexture" : {
                    "index" : 0
                },
                "metallicFactor" : 0.0
            }
        }
    ],
    "meshes" : [
        {
            "name" : "Plane.001",
            "primitives" : [
                {
                    "attributes" : {
                        "JOINTS_0" : 5,
                        "NORMAL" : 2,
                        "POSITION" : 1,
                        "TANGENT" : 3,
                        "TEXCOORD_0" : 4,
                        "WEIGHTS_0" : 6
                    },
                    "indices" : 0,
                    "material" : 0
                }
            ]
        }
    ],
    "nodes" : [
        {
            "mesh" : 0,
            "name" : "Puffy"
        }
    ],
    "samplers" : [
        {}
    ],
    "scene" : 0,
    "scenes" : [
        {
            "name" : "Scene",
            "nodes" : [
                0
            ]
        }
    ],
    "textures" : [
        {
            "sampler" : 0,
            "source" : 0
        },
        {
            "sampler" : 0,
            "source" : 1
        }
    ]
}
