{
    "accessors" : [
        {
            "bufferView" : 0, 
            "componentType" : 5121, 
            "count" : 36, 
            "max" : [
                23
            ], 
            "min" : [
                0
            ], 
            "type" : "SCALAR"
        }, 
        {
            "bufferView" : 1, 
            "componentType" : 5126, 
            "count" : 24, 
            "max" : [
                1.0000004768371582, 
                1.0, 
                1.0000005960464478
            ], 
            "min" : [
                -1.0000003576278687, 
                -1.0, 
                -1.0000003576278687
            ], 
            "type" : "VEC3"
        }, 
        {
            "bufferView" : 2, 
            "componentType" : 5126, 
            "count" : 24, 
            "max" : [
                1.0, 
                1.0, 
                1.0
            ], 
            "min" : [
                -1.0, 
                -1.0, 
                -1.0
            ], 
            "type" : "VEC3"
        }, 
        {
            "bufferView" : 3, 
            "componentType" : 5126, 
            "count" : 4, 
            "max" : [
                2.5
            ], 
            "min" : [
                0.0
            ], 
            "type" : "SCALAR"
        }, 
        {
            "bufferView" : 4, 
            "componentType" : 5126, 
            "count" : 12, 
            "max" : [
                0.0, 
                2.867751359939575, 
                -0.0
            ], 
            "min" : [
                0.0, 
                0.0, 
                -0.0
            ], 
            "type" : "VEC3"
        }, 
        {
            "bufferView" : 5, 
            "componentType" : 5126, 
            "count" : 61, 
            "max" : [
                2.5
            ], 
            "min" : [
                0.0
            ], 
            "type" : "SCALAR"
        }, 
        {
            "bufferView" : 6, 
            "componentType" : 5126, 
            "count" : 61, 
            "max" : [
                0.0, 
                0.0, 
                0.005354008637368679, 
                1.0
            ], 
            "min" : [
                -0.6928646564483643, 
                -0.37720322608947754, 
                -0.3060285151004791, 
                0.53291916847229
            ], 
            "type" : "VEC4"
        }, 
        {
            "bufferView" : 7, 
            "componentType" : 5126, 
            "count" : 4, 
            "max" : [
                2.5
            ], 
            "min" : [
                0.0
            ], 
            "type" : "SCALAR"
        }, 
        {
            "bufferView" : 8, 
            "componentType" : 5126, 
            "count" : 12, 
            "max" : [
                1.0448137521743774, 
                1.0448137521743774, 
                1.0448137521743774
            ], 
            "min" : [
                0.0, 
                0.0, 
                0.0
            ], 
            "type" : "VEC3"
        }
    ], 
    "animations" : [
        {
            "channels" : [
                {
                    "sampler" : 0, 
                    "target" : {
                        "node" : 0, 
                        "path" : "translation"
                    }
                }, 
                {
                    "sampler" : 1, 
                    "target" : {
                        "node" : 0, 
                        "path" : "rotation"
                    }
                }, 
                {
                    "sampler" : 2, 
                    "target" : {
                        "node" : 0, 
                        "path" : "scale"
                    }
                }
            ], 
            "samplers" : [
                {
                    "input" : 3, 
                    "interpolation" : "CUBICSPLINE", 
                    "output" : 4
                }, 
                {
                    "input" : 5, 
                    "interpolation" : "LINEAR", 
                    "output" : 6
                }, 
                {
                    "input" : 7, 
                    "interpolation" : "CUBICSPLINE", 
                    "output" : 8
                }
            ]
        }
    ], 
    "asset" : {
        "generator" : "Khronos Blender glTF 2.0 exporter", 
        "version" : "2.0"
    }, 
    "bufferViews" : [
        {
            "buffer" : 0, 
            "byteLength" : 36, 
            "byteOffset" : 0, 
            "target" : 34963
        }, 
        {
            "buffer" : 0, 
            "byteLength" : 288, 
            "byteOffset" : 36, 
            "target" : 34962
        }, 
        {
            "buffer" : 0, 
            "byteLength" : 288, 
            "byteOffset" : 324, 
            "target" : 34962
        }, 
        {
            "buffer" : 0, 
            "byteLength" : 16, 
            "byteOffset" : 612
        }, 
        {
            "buffer" : 0, 
            "byteLength" : 144, 
            "byteOffset" : 628
        }, 
        {
            "buffer" : 0, 
            "byteLength" : 244, 
            "byteOffset" : 772
        }, 
        {
            "buffer" : 0, 
            "byteLength" : 976, 
            "byteOffset" : 1016
        }, 
        {
            "buffer" : 0, 
            "byteLength" : 16, 
            "byteOffset" : 1992
        }, 
        {
            "buffer" : 0, 
            "byteLength" : 144, 
            "byteOffset" : 2008
        }
    ], 
    "buffers" : [
        {
            "byteLength" : 2152, 
            "uri" : "data:application/octet-stream;base64,"
        }
    ], 
    "materials" : [
        {
            "name" : "Material", 
            "pbrMetallicRoughness" : {
                "baseColorFactor" : [
                    0.35617602402234105, 
                    0.640000066757203, 
                    0.0, 
                    1.0
                ], 
                "metallicFactor" : 0.0
            }
        }
    ], 
    "meshes" : [
        {
            "name" : "Cube", 
            "primitives" : [
                {
                    "attributes" : {
                        "NORMAL" : 2, 
                        "POSITION" : 1
                    }, 
                    "indices" : 0, 
                    "material" : 0
                }
            ]
        }
    ], 
    "nodes" : [
        {
            "mesh" : 0, 
            "name" : "Cube"
        }
    ], 
    "scene" : 0, 
    "scenes" : [
        {
            "name" : "Scene", 
            "nodes" : [
                0
            ]
        }
    ]
}
